<?xml version="1.0" encoding="UTF-8" standalone="no"?>
<!-- Created with Inkscape (http://www.inkscape.org/) -->

<svg
   width="175"
   height="175"
   viewBox="0 0 175 175"
   version="1.1"
   id="svg1"
   xmlns="http://www.w3.org/2000/svg"
   xmlns:svg="http://www.w3.org/2000/svg">
  <defs
     id="defs1" />
  <g
     id="layer1">
    <circle
       style="display:inline;fill:#000000;fill-opacity:0.363636;stroke:#000000;stroke-width:4.00586;stroke-dasharray:none;stroke-opacity:1"
       id="path6"
       cx="87.5"
       cy="87.5"
       r="83.5" />
    <path
       d="m 56.310026,55.005507 17.488782,13.780552 c 1.600928,1.491418 3.756172,2.239181 5.936716,2.059981 2.180635,-0.179291 4.184719,-1.269107 5.520592,-3.002015 L 100.66619,47.27331 a 0.72369616,0.72369616 0.94474566 0 1 1.17239,0.01933 l 16.73254,23.942439 a 0.64170935,0.64170935 177.7403 0 0 1.07931,-0.04259 l 15.55641,-26.48457 -0.0478,10.353729 5.09386,-3.602199 -0.34861,6.375822 9.38549,-5.460092 -19.70121,32.985271 a 1.5439088,1.5439088 87.917326 0 0 0.061,1.677535 l 20.69371,29.53824 -8.36444,-3.50877 -0.0966,4.39225 -4.02391,-1.83661 0.0115,8.36683 -16.30047,-23.18738 a 0.64263545,0.64263545 177.61945 0 0 -1.08032,0.0449 l -14.26449,24.36613 -0.35281,-9.24586 -4.50212,2.56966 -0.10559,-5.0481 -8.676336,3.74797 17.964286,-30.536561 a 1.5614621,1.5614621 87.831243 0 0 -0.0637,-1.683011 L 100.15601,70.15447 88.180986,86.917974 c -3.077276,3.609305 -8.264164,3.816722 -12.148353,1.094748 l -13.776295,-9.654195 -21.223034,47.304133 -1.897043,-8.95628 -4.354333,4.57568 0.03337,-6.38526 -8.139997,4.09287 28.441514,-63.689984 a 0.77885491,0.77885491 166.1503 0 1 1.193211,-0.294179 z"
       style="display:inline;fill:none;fill-opacity:1;fill-rule:evenodd;stroke:#000000;stroke-width:2.15084;stroke-dasharray:none;stroke-opacity:1"
       id="path1" />
  </g>
</svg>
